<?xml version="1.0" encoding="UTF-8" standalone="no"?>
<!DOCTYPE svg PUBLIC "-//W3C//DTD SVG 1.1//EN"
 "http://www.w3.org/Graphics/SVG/1.1/DTD/svg11.dtd">
<!-- Generated by graphviz version 2.40.1 (20161225.0304)
 -->
<!-- Title: gocallvis Pages: 1 -->
<svg width="962pt" height="631pt"
 viewBox="0.00 0.00 962.47 630.80" xmlns="http://www.w3.org/2000/svg" xmlns:xlink="http://www.w3.org/1999/xlink">
<g id="graph0" class="graph" transform="scale(1 1) rotate(0) translate(0 630.8)">
<title>gocallvis</title>
<polygon fill="#d3d3d3" stroke="transparent" points="0,0 0,-630.8 962.4666,-630.8 962.4666,0 0,0"/>
<text text-anchor="middle" x="46.8913" y="-8.2" font-family="Arial" font-size="14.00" fill="#000000">tiny&#45;exporter</text>
<g id="clust1" class="cluster">
<title>cluster_focus</title>
<polygon fill="#e6ecfa" stroke="#000000" stroke-width=".5" points="8,-32.8 8,-622.8 954.4666,-622.8 954.4666,-32.8 8,-32.8"/>
<text text-anchor="middle" x="481.2333" y="-602.6" font-family="Arial" font-size="18.00" fill="#000000">main</text>
</g>
<g id="clust6" class="cluster">
<title>cluster_os</title>
<g id="a_clust6"><a xlink:href="/?f=os" xlink:title="package: os">
<polygon fill="#ffffe0" stroke="#000000" stroke-width=".8" points="184.513,-461.8 184.513,-540.8 254.513,-540.8 254.513,-461.8 184.513,-461.8"/>
<text text-anchor="middle" x="219.513" y="-522.4" font-family="Tahoma bold" font-size="16.00" fill="#000000">os</text>
</a>
</g>
</g>
<g id="clust5" class="cluster">
<title>cluster_net/http</title>
<g id="a_clust5"><a xlink:href="/?f=net/http" xlink:title="package: net/http">
<polygon fill="#ffffe0" stroke="#000000" stroke-width=".8" points="162.027,-313.8 162.027,-453.8 276.999,-453.8 276.999,-313.8 162.027,-313.8"/>
<text text-anchor="middle" x="219.513" y="-435.4" font-family="Tahoma bold" font-size="16.00" fill="#000000">http</text>
</a>
</g>
</g>
<g id="clust4" class="cluster">
<title>cluster_github.com/prometheus/client_golang/prometheus/promhttp</title>
<g id="a_clust4"><a xlink:href="/?f=github.com/prometheus/client_golang/prometheus/promhttp" xlink:title="package: github.com/prometheus/client_golang/prometheus/promhttp">
<polygon fill="#ffffe0" stroke="#000000" stroke-width=".8" points="175.2479,-226.8 175.2479,-305.8 263.7781,-305.8 263.7781,-226.8 175.2479,-226.8"/>
<text text-anchor="middle" x="219.513" y="-287.4" font-family="Tahoma bold" font-size="16.00" fill="#000000">promhttp</text>
</a>
</g>
</g>
<g id="clust3" class="cluster">
<title>cluster_github.com/prometheus/client_golang/prometheus</title>
<g id="a_clust3"><a xlink:href="/?f=github.com/prometheus/client_golang/prometheus" xlink:title="package: github.com/prometheus/client_golang/prometheus">
<polygon fill="#ffffe0" stroke="#000000" stroke-width=".8" points="361.026,-40.8 361.026,-424.8 719.132,-424.8 719.132,-40.8 361.026,-40.8"/>
<text text-anchor="middle" x="540.079" y="-406.4" font-family="Tahoma bold" font-size="16.00" fill="#000000">prometheus</text>
</a>
</g>
</g>
<g id="clust2" class="cluster">
<title>cluster_fmt</title>
<g id="a_clust2"><a xlink:href="/?f=fmt" xlink:title="package: fmt">
<polygon fill="#ffffe0" stroke="#000000" stroke-width=".8" points="184.513,-93.8 184.513,-172.8 254.513,-172.8 254.513,-93.8 184.513,-93.8"/>
<text text-anchor="middle" x="219.513" y="-154.4" font-family="Tahoma bold" font-size="16.00" fill="#000000">fmt</text>
</a>
</g>
</g>
<!-- (tiny&#45;exporter.SimpleCollector).Collect -->
<g id="node1" class="node">
<title>(tiny&#45;exporter.SimpleCollector).Collect</title>
<g id="a_node1"><a xlink:title="(tiny&#45;exporter.SimpleCollector).Collect | defined in tiny_exporter.go:40&#10;at tiny_exporter.go:41: calling [github.com/prometheus/client_golang/prometheus.MustNewConstMetric]">
<path fill="#add8e6" stroke="#000000" stroke-width="1.5" d="M284.039,-584.8C284.039,-584.8 154.987,-584.8 154.987,-584.8 148.987,-584.8 142.987,-578.8 142.987,-572.8 142.987,-572.8 142.987,-560.8 142.987,-560.8 142.987,-554.8 148.987,-548.8 154.987,-548.8 154.987,-548.8 284.039,-548.8 284.039,-548.8 290.039,-548.8 296.039,-554.8 296.039,-560.8 296.039,-560.8 296.039,-572.8 296.039,-572.8 296.039,-578.8 290.039,-584.8 284.039,-584.8"/>
<text text-anchor="middle" x="219.513" y="-562.6" font-family="Verdana" font-size="14.00" fill="#000000">(SimpleCollector).Collect</text>
</a>
</g>
</g>
<!-- github.com/prometheus/client_golang/prometheus.MustNewConstMetric -->
<g id="node6" class="node">
<title>github.com/prometheus/client_golang/prometheus.MustNewConstMetric</title>
<g id="a_node6"><a xlink:title="github.com/prometheus/client_golang/prometheus.MustNewConstMetric | defined in value.go:127">
<path fill="#ffe4b5" stroke="#000000" stroke-width="1.5" d="M490.3186,-328.8C490.3186,-328.8 380.9284,-328.8 380.9284,-328.8 374.9284,-328.8 368.9284,-322.8 368.9284,-316.8 368.9284,-316.8 368.9284,-304.8 368.9284,-304.8 368.9284,-298.8 374.9284,-292.8 380.9284,-292.8 380.9284,-292.8 490.3186,-292.8 490.3186,-292.8 496.3186,-292.8 502.3186,-298.8 502.3186,-304.8 502.3186,-304.8 502.3186,-316.8 502.3186,-316.8 502.3186,-322.8 496.3186,-328.8 490.3186,-328.8"/>
<text text-anchor="middle" x="435.6235" y="-306.6" font-family="Verdana" font-size="14.00" fill="#000000">MustNewConstMetric</text>
</a>
</g>
</g>
<!-- (tiny&#45;exporter.SimpleCollector).Collect&#45;&gt;github.com/prometheus/client_golang/prometheus.MustNewConstMetric -->
<g id="edge13" class="edge">
<title>(tiny&#45;exporter.SimpleCollector).Collect&#45;&gt;github.com/prometheus/client_golang/prometheus.MustNewConstMetric</title>
<g id="a_edge13"><a xlink:title="at tiny_exporter.go:41: calling [github.com/prometheus/client_golang/prometheus.MustNewConstMetric]">
<path fill="none" stroke="#8b4513" d="M291.642,-548.6031C293.1719,-547.4137 294.6374,-546.1477 296.026,-544.8 364.0074,-478.8216 296.9093,-411.54 361.026,-341.8 363.4242,-339.1915 366.0757,-336.7959 368.907,-334.5966"/>
<polygon fill="#8b4513" stroke="#8b4513" points="370.9892,-337.4135 377.3017,-328.9045 367.0607,-331.6198 370.9892,-337.4135"/>
</a>
</g>
</g>
<!-- (tiny&#45;exporter.SimpleCollector).Describe -->
<g id="node2" class="node">
<title>(tiny&#45;exporter.SimpleCollector).Describe</title>
<g id="a_node2"><a xlink:title="(tiny&#45;exporter.SimpleCollector).Describe | defined in tiny_exporter.go:35">
<path fill="#add8e6" stroke="#000000" stroke-width="1.5" d="M934.6342,-206.8C934.6342,-206.8 795.9644,-206.8 795.9644,-206.8 789.9644,-206.8 783.9644,-200.8 783.9644,-194.8 783.9644,-194.8 783.9644,-182.8 783.9644,-182.8 783.9644,-176.8 789.9644,-170.8 795.9644,-170.8 795.9644,-170.8 934.6342,-170.8 934.6342,-170.8 940.6342,-170.8 946.6342,-176.8 946.6342,-182.8 946.6342,-182.8 946.6342,-194.8 946.6342,-194.8 946.6342,-200.8 940.6342,-206.8 934.6342,-206.8"/>
<text text-anchor="middle" x="865.2993" y="-184.6" font-family="Verdana" font-size="14.00" fill="#000000">(SimpleCollector).Describe</text>
</a>
</g>
</g>
<!-- tiny&#45;exporter.NewSimpleCollector -->
<g id="node3" class="node">
<title>tiny&#45;exporter.NewSimpleCollector</title>
<g id="a_node3"><a xlink:title="tiny&#45;exporter.NewSimpleCollector | defined in tiny_exporter.go:24&#10;at tiny_exporter.go:26: calling [github.com/prometheus/client_golang/prometheus.NewDesc]&#10;at tiny_exporter.go:27: calling [github.com/prometheus/client_golang/prometheus.BuildFQName]">
<path fill="#add8e6" stroke="#000000" stroke-width="1.5" d="M270.7082,-76.8C270.7082,-76.8 168.3178,-76.8 168.3178,-76.8 162.3178,-76.8 156.3178,-70.8 156.3178,-64.8 156.3178,-64.8 156.3178,-52.8 156.3178,-52.8 156.3178,-46.8 162.3178,-40.8 168.3178,-40.8 168.3178,-40.8 270.7082,-40.8 270.7082,-40.8 276.7082,-40.8 282.7082,-46.8 282.7082,-52.8 282.7082,-52.8 282.7082,-64.8 282.7082,-64.8 282.7082,-70.8 276.7082,-76.8 270.7082,-76.8"/>
<text text-anchor="middle" x="219.513" y="-54.6" font-family="Verdana" font-size="14.00" fill="#000000">NewSimpleCollector</text>
</a>
</g>
</g>
<!-- github.com/prometheus/client_golang/prometheus.BuildFQName -->
<g id="node10" class="node">
<title>github.com/prometheus/client_golang/prometheus.BuildFQName</title>
<g id="a_node10"><a xlink:title="github.com/prometheus/client_golang/prometheus.BuildFQName | defined in metric.go:106">
<path fill="#ffe4b5" stroke="#000000" stroke-width="1.5" d="M469.0579,-84.8C469.0579,-84.8 402.1891,-84.8 402.1891,-84.8 396.1891,-84.8 390.1891,-78.8 390.1891,-72.8 390.1891,-72.8 390.1891,-60.8 390.1891,-60.8 390.1891,-54.8 396.1891,-48.8 402.1891,-48.8 402.1891,-48.8 469.0579,-48.8 469.0579,-48.8 475.0579,-48.8 481.0579,-54.8 481.0579,-60.8 481.0579,-60.8 481.0579,-72.8 481.0579,-72.8 481.0579,-78.8 475.0579,-84.8 469.0579,-84.8"/>
<text text-anchor="middle" x="435.6235" y="-62.6" font-family="Verdana" font-size="14.00" fill="#000000">BuildFQName</text>
</a>
</g>
</g>
<!-- tiny&#45;exporter.NewSimpleCollector&#45;&gt;github.com/prometheus/client_golang/prometheus.BuildFQName -->
<g id="edge11" class="edge">
<title>tiny&#45;exporter.NewSimpleCollector&#45;&gt;github.com/prometheus/client_golang/prometheus.BuildFQName</title>
<g id="a_edge11"><a xlink:title="at tiny_exporter.go:27: calling [github.com/prometheus/client_golang/prometheus.BuildFQName]">
<path fill="none" stroke="#8b4513" d="M282.8931,-61.1462C313.6425,-62.2845 350.2503,-63.6396 379.9165,-64.7378"/>
<polygon fill="#8b4513" stroke="#8b4513" points="379.9767,-68.2424 390.0994,-65.1148 380.2357,-61.2472 379.9767,-68.2424"/>
</a>
</g>
</g>
<!-- github.com/prometheus/client_golang/prometheus.NewDesc -->
<g id="node11" class="node">
<title>github.com/prometheus/client_golang/prometheus.NewDesc</title>
<g id="a_node11"><a xlink:title="github.com/prometheus/client_golang/prometheus.NewDesc | defined in desc.go:82">
<path fill="#ffe4b5" stroke="#000000" stroke-width="1.5" d="M455.033,-145.8C455.033,-145.8 416.214,-145.8 416.214,-145.8 410.214,-145.8 404.214,-139.8 404.214,-133.8 404.214,-133.8 404.214,-121.8 404.214,-121.8 404.214,-115.8 410.214,-109.8 416.214,-109.8 416.214,-109.8 455.033,-109.8 455.033,-109.8 461.033,-109.8 467.033,-115.8 467.033,-121.8 467.033,-121.8 467.033,-133.8 467.033,-133.8 467.033,-139.8 461.033,-145.8 455.033,-145.8"/>
<text text-anchor="middle" x="435.6235" y="-123.6" font-family="Verdana" font-size="14.00" fill="#000000">NewDesc</text>
</a>
</g>
</g>
<!-- tiny&#45;exporter.NewSimpleCollector&#45;&gt;github.com/prometheus/client_golang/prometheus.NewDesc -->
<g id="edge8" class="edge">
<title>tiny&#45;exporter.NewSimpleCollector&#45;&gt;github.com/prometheus/client_golang/prometheus.NewDesc</title>
<g id="a_edge8"><a xlink:title="at tiny_exporter.go:26: calling [github.com/prometheus/client_golang/prometheus.NewDesc]">
<path fill="none" stroke="#8b4513" d="M276.0112,-76.8388C313.0725,-88.6718 360.7028,-103.8792 394.2519,-114.5908"/>
<polygon fill="#8b4513" stroke="#8b4513" points="393.5935,-118.0546 404.1843,-117.7621 395.7226,-111.3863 393.5935,-118.0546"/>
</a>
</g>
</g>
<!-- tiny&#45;exporter.main -->
<g id="node4" class="node">
<title>tiny&#45;exporter.main</title>
<g id="a_node4"><a xlink:title="tiny&#45;exporter.main | defined in tiny_exporter.go:49&#10;at tiny_exporter.go:70: calling [os.Exit]&#10;at tiny_exporter.go:57: calling [(*github.com/prometheus/client_golang/prometheus.Registry).Register]&#10;at tiny_exporter.go:58: calling [fmt.Println]&#10;at tiny_exporter.go:60: calling [fmt.Println]&#10;at tiny_exporter.go:54: calling [github.com/prometheus/client_golang/prometheus.NewRegistry]&#10;at tiny_exporter.go:69: calling [net/http.ListenAndServe]&#10;at tiny_exporter.go:51: calling [tiny&#45;exporter.NewSimpleCollector]&#10;at tiny_exporter.go:68: calling [net/http.Handle]&#10;at tiny_exporter.go:65: calling [github.com/prometheus/client_golang/prometheus/promhttp.HandlerFor]">
<path fill="#add8e6" stroke="#000000" stroke-width=".5" d="M58,-243.8C58,-243.8 28,-243.8 28,-243.8 22,-243.8 16,-237.8 16,-231.8 16,-231.8 16,-219.8 16,-219.8 16,-213.8 22,-207.8 28,-207.8 28,-207.8 58,-207.8 58,-207.8 64,-207.8 70,-213.8 70,-219.8 70,-219.8 70,-231.8 70,-231.8 70,-237.8 64,-243.8 58,-243.8"/>
<text text-anchor="middle" x="43" y="-221.6" font-family="Verdana" font-size="14.00" fill="#000000">main</text>
</a>
</g>
</g>
<!-- tiny&#45;exporter.main&#45;&gt;tiny&#45;exporter.NewSimpleCollector -->
<g id="edge7" class="edge">
<title>tiny&#45;exporter.main&#45;&gt;tiny&#45;exporter.NewSimpleCollector</title>
<g id="a_edge7"><a xlink:title="at tiny_exporter.go:51: calling [tiny&#45;exporter.NewSimpleCollector]">
<path fill="none" stroke="#000000" d="M51.777,-207.5175C66.6617,-178.3151 99.525,-121.0568 143,-87.8 145.7925,-85.6638 148.7603,-83.6696 151.8432,-81.8099"/>
<polygon fill="#000000" stroke="#000000" points="153.6925,-84.7878 160.7869,-76.9189 150.3338,-78.6462 153.6925,-84.7878"/>
</a>
</g>
</g>
<!-- fmt.Println -->
<g id="node5" class="node">
<title>fmt.Println</title>
<g id="a_node5"><a xlink:title="fmt.Println | defined in print.go:313">
<path fill="#ffe4b5" stroke="#000000" stroke-width="1.5" d="M234.513,-137.8C234.513,-137.8 204.513,-137.8 204.513,-137.8 198.513,-137.8 192.513,-131.8 192.513,-125.8 192.513,-125.8 192.513,-113.8 192.513,-113.8 192.513,-107.8 198.513,-101.8 204.513,-101.8 204.513,-101.8 234.513,-101.8 234.513,-101.8 240.513,-101.8 246.513,-107.8 246.513,-113.8 246.513,-113.8 246.513,-125.8 246.513,-125.8 246.513,-131.8 240.513,-137.8 234.513,-137.8"/>
<text text-anchor="middle" x="219.513" y="-115.6" font-family="Verdana" font-size="14.00" fill="#000000">Println</text>
</a>
</g>
</g>
<!-- tiny&#45;exporter.main&#45;&gt;fmt.Println -->
<g id="edge3" class="edge">
<title>tiny&#45;exporter.main&#45;&gt;fmt.Println</title>
<g id="a_edge3"><a xlink:title="at tiny_exporter.go:58: calling [fmt.Println]&#10;at tiny_exporter.go:60: calling [fmt.Println]">
<path fill="none" stroke="#8b4513" d="M60.0881,-207.4748C78.7579,-188.4756 110.3793,-159.171 143,-141.8 155.1292,-135.341 169.3777,-130.5807 182.2698,-127.1738"/>
<polygon fill="#8b4513" stroke="#8b4513" points="183.3736,-130.5069 192.2518,-124.7252 181.7059,-123.7085 183.3736,-130.5069"/>
</a>
</g>
</g>
<!-- (*github.com/prometheus/client_golang/prometheus.Registry).Register -->
<g id="node9" class="node">
<title>(*github.com/prometheus/client_golang/prometheus.Registry).Register</title>
<g id="a_node9"><a xlink:title="(*github.com/prometheus/client_golang/prometheus.Registry).Register | defined in registry.go:271&#10;at registry.go:279: calling [(*github.com/prometheus/client_golang/prometheus.Registry).Register$1]">
<path fill="#ffe4b5" stroke="#000000" stroke-width="1.5" d="M484.5345,-206.8C484.5345,-206.8 386.7125,-206.8 386.7125,-206.8 380.7125,-206.8 374.7125,-200.8 374.7125,-194.8 374.7125,-194.8 374.7125,-182.8 374.7125,-182.8 374.7125,-176.8 380.7125,-170.8 386.7125,-170.8 386.7125,-170.8 484.5345,-170.8 484.5345,-170.8 490.5345,-170.8 496.5345,-176.8 496.5345,-182.8 496.5345,-182.8 496.5345,-194.8 496.5345,-194.8 496.5345,-200.8 490.5345,-206.8 484.5345,-206.8"/>
<text text-anchor="middle" x="435.6235" y="-184.6" font-family="Verdana" font-size="14.00" fill="#000000">(*Registry).Register</text>
</a>
</g>
</g>
<!-- tiny&#45;exporter.main&#45;&gt;(*github.com/prometheus/client_golang/prometheus.Registry).Register -->
<g id="edge2" class="edge">
<title>tiny&#45;exporter.main&#45;&gt;(*github.com/prometheus/client_golang/prometheus.Registry).Register</title>
<g id="a_edge2"><a xlink:title="at tiny_exporter.go:57: calling [(*github.com/prometheus/client_golang/prometheus.Registry).Register]">
<path fill="none" stroke="#8b4513" d="M70.0805,-221.0752C90.1517,-217.7351 118.2079,-213.4048 143,-210.8 218.4367,-202.8742 305.1057,-196.7261 364.4257,-192.9688"/>
<polygon fill="#8b4513" stroke="#8b4513" points="364.6776,-196.46 374.4389,-192.3409 364.2394,-189.4737 364.6776,-196.46"/>
</a>
</g>
</g>
<!-- github.com/prometheus/client_golang/prometheus.NewRegistry -->
<g id="node12" class="node">
<title>github.com/prometheus/client_golang/prometheus.NewRegistry</title>
<g id="a_node12"><a xlink:title="github.com/prometheus/client_golang/prometheus.NewRegistry | defined in registry.go:68">
<path fill="#ffe4b5" stroke="#000000" stroke-width="1.5" d="M464.489,-267.8C464.489,-267.8 406.758,-267.8 406.758,-267.8 400.758,-267.8 394.758,-261.8 394.758,-255.8 394.758,-255.8 394.758,-243.8 394.758,-243.8 394.758,-237.8 400.758,-231.8 406.758,-231.8 406.758,-231.8 464.489,-231.8 464.489,-231.8 470.489,-231.8 476.489,-237.8 476.489,-243.8 476.489,-243.8 476.489,-255.8 476.489,-255.8 476.489,-261.8 470.489,-267.8 464.489,-267.8"/>
<text text-anchor="middle" x="435.6235" y="-245.6" font-family="Verdana" font-size="14.00" fill="#000000">NewRegistry</text>
</a>
</g>
</g>
<!-- tiny&#45;exporter.main&#45;&gt;github.com/prometheus/client_golang/prometheus.NewRegistry -->
<g id="edge4" class="edge">
<title>tiny&#45;exporter.main&#45;&gt;github.com/prometheus/client_golang/prometheus.NewRegistry</title>
<g id="a_edge4"><a xlink:title="at tiny_exporter.go:54: calling [github.com/prometheus/client_golang/prometheus.NewRegistry]">
<path fill="none" stroke="#8b4513" d="M70.1497,-224.0753C90.2552,-222.8875 118.3241,-221.4165 143,-220.8 210.9903,-219.1013 228.3708,-213.8469 296.026,-220.8 325.8295,-223.863 358.6565,-230.5123 384.9856,-236.672"/>
<polygon fill="#8b4513" stroke="#8b4513" points="384.1991,-240.0825 394.7386,-239.0003 385.8246,-233.2738 384.1991,-240.0825"/>
</a>
</g>
</g>
<!-- github.com/prometheus/client_golang/prometheus/promhttp.HandlerFor -->
<g id="node13" class="node">
<title>github.com/prometheus/client_golang/prometheus/promhttp.HandlerFor</title>
<g id="a_node13"><a xlink:title="github.com/prometheus/client_golang/prometheus/promhttp.HandlerFor | defined in http.go:87">
<path fill="#ffe4b5" stroke="#000000" stroke-width="1.5" d="M243.5447,-270.8C243.5447,-270.8 195.4813,-270.8 195.4813,-270.8 189.4813,-270.8 183.4813,-264.8 183.4813,-258.8 183.4813,-258.8 183.4813,-246.8 183.4813,-246.8 183.4813,-240.8 189.4813,-234.8 195.4813,-234.8 195.4813,-234.8 243.5447,-234.8 243.5447,-234.8 249.5447,-234.8 255.5447,-240.8 255.5447,-246.8 255.5447,-246.8 255.5447,-258.8 255.5447,-258.8 255.5447,-264.8 249.5447,-270.8 243.5447,-270.8"/>
<text text-anchor="middle" x="219.513" y="-248.6" font-family="Verdana" font-size="14.00" fill="#000000">HandlerFor</text>
</a>
</g>
</g>
<!-- tiny&#45;exporter.main&#45;&gt;github.com/prometheus/client_golang/prometheus/promhttp.HandlerFor -->
<g id="edge12" class="edge">
<title>tiny&#45;exporter.main&#45;&gt;github.com/prometheus/client_golang/prometheus/promhttp.HandlerFor</title>
<g id="a_edge12"><a xlink:title="at tiny_exporter.go:65: calling [github.com/prometheus/client_golang/prometheus/promhttp.HandlerFor]">
<path fill="none" stroke="#8b4513" d="M70.1933,-229.9596C97.5935,-234.1508 140.3955,-240.6979 173.1618,-245.71"/>
<polygon fill="#8b4513" stroke="#8b4513" points="173.0011,-249.226 183.4154,-247.2784 174.0596,-242.3065 173.0011,-249.226"/>
</a>
</g>
</g>
<!-- net/http.Handle -->
<g id="node14" class="node">
<title>net/http.Handle</title>
<g id="a_node14"><a xlink:title="net/http.Handle | defined in server.go:2559">
<path fill="#ffe4b5" stroke="#000000" stroke-width="1.5" d="M234.513,-357.8C234.513,-357.8 204.513,-357.8 204.513,-357.8 198.513,-357.8 192.513,-351.8 192.513,-345.8 192.513,-345.8 192.513,-333.8 192.513,-333.8 192.513,-327.8 198.513,-321.8 204.513,-321.8 204.513,-321.8 234.513,-321.8 234.513,-321.8 240.513,-321.8 246.513,-327.8 246.513,-333.8 246.513,-333.8 246.513,-345.8 246.513,-345.8 246.513,-351.8 240.513,-357.8 234.513,-357.8"/>
<text text-anchor="middle" x="219.513" y="-335.6" font-family="Verdana" font-size="14.00" fill="#000000">Handle</text>
</a>
</g>
</g>
<!-- tiny&#45;exporter.main&#45;&gt;net/http.Handle -->
<g id="edge9" class="edge">
<title>tiny&#45;exporter.main&#45;&gt;net/http.Handle</title>
<g id="a_edge9"><a xlink:title="at tiny_exporter.go:68: calling [net/http.Handle]">
<path fill="none" stroke="#8b4513" d="M60.2573,-244.1255C79.0685,-263.2128 110.8067,-292.9139 143,-311.8 155.2501,-318.9865 169.661,-324.843 182.6532,-329.3072"/>
<polygon fill="#8b4513" stroke="#8b4513" points="181.6599,-332.6648 192.2526,-332.4487 183.8371,-326.012 181.6599,-332.6648"/>
</a>
</g>
</g>
<!-- net/http.ListenAndServe -->
<g id="node15" class="node">
<title>net/http.ListenAndServe</title>
<g id="a_node15"><a xlink:title="net/http.ListenAndServe | defined in server.go:3240">
<path fill="#ffe4b5" stroke="#000000" stroke-width="1.5" d="M256.985,-418.8C256.985,-418.8 182.041,-418.8 182.041,-418.8 176.041,-418.8 170.041,-412.8 170.041,-406.8 170.041,-406.8 170.041,-394.8 170.041,-394.8 170.041,-388.8 176.041,-382.8 182.041,-382.8 182.041,-382.8 256.985,-382.8 256.985,-382.8 262.985,-382.8 268.985,-388.8 268.985,-394.8 268.985,-394.8 268.985,-406.8 268.985,-406.8 268.985,-412.8 262.985,-418.8 256.985,-418.8"/>
<text text-anchor="middle" x="219.513" y="-396.6" font-family="Verdana" font-size="14.00" fill="#000000">ListenAndServe</text>
</a>
</g>
</g>
<!-- tiny&#45;exporter.main&#45;&gt;net/http.ListenAndServe -->
<g id="edge5" class="edge">
<title>tiny&#45;exporter.main&#45;&gt;net/http.ListenAndServe</title>
<g id="a_edge5"><a xlink:title="at tiny_exporter.go:69: calling [net/http.ListenAndServe]">
<path fill="none" stroke="#8b4513" d="M51.1122,-243.9804C65.4865,-274.2792 98.1906,-335.2735 143,-370.8 148.3334,-375.0285 154.3359,-378.7229 160.573,-381.9352"/>
<polygon fill="#8b4513" stroke="#8b4513" points="159.2908,-385.2003 169.8281,-386.303 162.2784,-378.8698 159.2908,-385.2003"/>
</a>
</g>
</g>
<!-- os.Exit -->
<g id="node16" class="node">
<title>os.Exit</title>
<g id="a_node16"><a xlink:title="os.Exit | defined in proc.go:62">
<path fill="#ffe4b5" stroke="#000000" stroke-width="1.5" d="M234.513,-505.8C234.513,-505.8 204.513,-505.8 204.513,-505.8 198.513,-505.8 192.513,-499.8 192.513,-493.8 192.513,-493.8 192.513,-481.8 192.513,-481.8 192.513,-475.8 198.513,-469.8 204.513,-469.8 204.513,-469.8 234.513,-469.8 234.513,-469.8 240.513,-469.8 246.513,-475.8 246.513,-481.8 246.513,-481.8 246.513,-493.8 246.513,-493.8 246.513,-499.8 240.513,-505.8 234.513,-505.8"/>
<text text-anchor="middle" x="219.513" y="-483.6" font-family="Verdana" font-size="14.00" fill="#000000">Exit</text>
</a>
</g>
</g>
<!-- tiny&#45;exporter.main&#45;&gt;os.Exit -->
<g id="edge1" class="edge">
<title>tiny&#45;exporter.main&#45;&gt;os.Exit</title>
<g id="a_edge1"><a xlink:title="at tiny_exporter.go:70: calling [os.Exit]">
<path fill="none" stroke="#8b4513" d="M45.7161,-243.8009C53.1748,-287.1084 77.9246,-398.0881 143,-459.8 153.8195,-470.0602 168.702,-476.6183 182.4668,-480.7834"/>
<polygon fill="#8b4513" stroke="#8b4513" points="181.6519,-484.1886 192.2182,-483.412 183.4739,-477.4298 181.6519,-484.1886"/>
</a>
</g>
</g>
<!-- (*github.com/prometheus/client_golang/prometheus.Registry).Gather$1 -->
<g id="node7" class="node">
<title>(*github.com/prometheus/client_golang/prometheus.Registry).Gather$1</title>
<g id="a_node7"><a xlink:title="(*github.com/prometheus/client_golang/prometheus.Registry).Gather$1 | defined in registry.go:452&#10;at registry.go:458: calling [(tiny&#45;exporter.SimpleCollector).Collect]&#10;at registry.go:456: calling [(tiny&#45;exporter.SimpleCollector).Collect]">
<polygon fill="#ffe4b5" stroke="#000000" stroke-dasharray="1,5" points="499.4698,-389.8 371.7772,-389.8 371.7772,-353.8 499.4698,-353.8 499.4698,-389.8"/>
<text text-anchor="middle" x="435.6235" y="-367.6" font-family="Verdana" font-size="14.00" fill="#000000">(*Registry).Gather$1</text>
</a>
</g>
</g>
<!-- (*github.com/prometheus/client_golang/prometheus.Registry).Gather$1&#45;&gt;(tiny&#45;exporter.SimpleCollector).Collect -->
<g id="edge14" class="edge">
<title>(*github.com/prometheus/client_golang/prometheus.Registry).Gather$1&#45;&gt;(tiny&#45;exporter.SimpleCollector).Collect</title>
<g id="a_edge14"><a xlink:title="at registry.go:458: calling [(tiny&#45;exporter.SimpleCollector).Collect]&#10;at registry.go:456: calling [(tiny&#45;exporter.SimpleCollector).Collect]">
<path fill="none" stroke="#8b4513" stroke-dasharray="5,2" d="M426.0026,-390.0417C407.2145,-423.9459 362.2991,-497.0721 297.9342,-542.9468"/>
<polygon fill="#8b4513" stroke="#8b4513" points="295.8404,-540.1386 289.5693,-548.6782 299.797,-545.9131 295.8404,-540.1386"/>
</a>
</g>
</g>
<!-- (*github.com/prometheus/client_golang/prometheus.Registry).Register$1 -->
<g id="node8" class="node">
<title>(*github.com/prometheus/client_golang/prometheus.Registry).Register$1</title>
<g id="a_node8"><a xlink:title="(*github.com/prometheus/client_golang/prometheus.Registry).Register$1 | defined in registry.go:279&#10;at registry.go:280: calling [(tiny&#45;exporter.SimpleCollector).Describe]">
<polygon fill="#ffe4b5" stroke="#000000" stroke-dasharray="1,5" points="711.0875,-206.8 575.2655,-206.8 575.2655,-170.8 711.0875,-170.8 711.0875,-206.8"/>
<text text-anchor="middle" x="643.1765" y="-184.6" font-family="Verdana" font-size="14.00" fill="#000000">(*Registry).Register$1</text>
</a>
</g>
</g>
<!-- (*github.com/prometheus/client_golang/prometheus.Registry).Register$1&#45;&gt;(tiny&#45;exporter.SimpleCollector).Describe -->
<g id="edge6" class="edge">
<title>(*github.com/prometheus/client_golang/prometheus.Registry).Register$1&#45;&gt;(tiny&#45;exporter.SimpleCollector).Describe</title>
<g id="a_edge6"><a xlink:title="at registry.go:280: calling [(tiny&#45;exporter.SimpleCollector).Describe]">
<path fill="none" stroke="#8b4513" stroke-dasharray="5,2" d="M711.3302,-188.8C731.0571,-188.8 752.9182,-188.8 773.8232,-188.8"/>
<polygon fill="#8b4513" stroke="#8b4513" points="773.9954,-192.3001 783.9954,-188.8 773.9953,-185.3001 773.9954,-192.3001"/>
</a>
</g>
</g>
<!-- (*github.com/prometheus/client_golang/prometheus.Registry).Register&#45;&gt;(*github.com/prometheus/client_golang/prometheus.Registry).Register$1 -->
<g id="edge10" class="edge">
<title>(*github.com/prometheus/client_golang/prometheus.Registry).Register&#45;&gt;(*github.com/prometheus/client_golang/prometheus.Registry).Register$1</title>
<g id="a_edge10"><a xlink:title="at registry.go:279: calling [(*github.com/prometheus/client_golang/prometheus.Registry).Register$1]">
<path fill="none" stroke="#8b4513" d="M496.7737,-188.8C514.0935,-188.8 533.3307,-188.8 552.0142,-188.8"/>
<polygon fill="#8b4513" stroke="#8b4513" points="565.1979,-192.3 575.1979,-188.8 565.1979,-185.3 565.1979,-192.3"/>
<polyline fill="none" stroke="#8b4513" points="565.1979,-188.8 560.1979,-188.8001 "/>
<ellipse fill="none" stroke="#8b4513" cx="556.1979" cy="-188.8001" rx="4" ry="4"/>
</a>
</g>
</g>
</g>
</svg>
